<?xml version="1.0" encoding="UTF-8"?>
<svg version="1.1" xmlns="http://www.w3.org/2000/svg" width="1920" height="1413">
<path d="M0 0 C3.74066147 -0.00434129 7.48108663 -0.01808694 11.22167969 -0.04101562 C45.27224926 -0.24514087 79.17147129 1.22740995 112.97973633 5.49023438 C113.81420288 5.59250336 114.64866943 5.69477234 115.50842285 5.80014038 C202.56561517 16.51109593 288.27949567 39.31168836 376.97973633 75.24023438 C378.08913574 75.69285645 379.19853516 76.14547852 380.34155273 76.61181641 C419.3976479 92.61918945 457.96127307 110.60759339 494.47827148 131.80810547 C497.70496945 133.65544202 500.97269247 135.42027529 504.24609375 137.18310547 C538.56075757 155.70894091 571.2795053 177.70694314 602.85473633 200.55273438 C603.96026855 201.35203369 603.96026855 201.35203369 605.08813477 202.16748047 C612.8293283 207.8020595 620.37656705 213.67884564 627.8972168 219.60302734 C629.84765699 221.13639802 631.80466197 222.66081672 633.76489258 224.18164062 C641.10367337 229.88612985 648.26536478 235.76485317 655.3190918 241.81787109 C657.035976 243.28840437 658.75922315 244.75120361 660.48364258 246.21289062 C667.13916701 251.86725464 673.66853819 257.62680095 680.06567383 263.57226562 C682.30509999 265.62257135 684.56423257 267.63114747 686.85473633 269.62304688 C698.20699141 279.52382932 708.94357287 290.10621168 719.60473633 300.74023438 C720.52851074 301.6594165 721.45228516 302.57859863 722.40405273 303.52563477 C726.87415594 308.0059288 731.20475206 312.53832523 735.32592773 317.34130859 C738.23042881 320.67629669 741.30654931 323.84964856 744.35473633 327.05273438 C749.46069871 332.45454923 754.31707481 337.92895415 758.94848633 343.74414062 C761.00189802 346.26746769 763.1516169 348.65955711 765.35473633 351.05273438 C769.87627145 356.02093761 773.99125838 361.24827015 778.10473633 366.55273438 C780.46993314 369.60106705 782.88394945 372.6059339 785.31445312 375.60229492 C821.54753781 420.35940284 852.09533871 469.95762923 878.37036133 521.109375 C879.44969252 523.20909332 880.53307702 525.30673269 881.62036133 527.40234375 C918.90365647 599.3991742 945.16865445 678.28669762 967.81567383 807.47460938 C967.97140366 808.60664543 967.97140366 808.60664543 968.13027954 809.7615509 C968.4224325 811.92004269 968.70172692 814.07987887 968.97973633 816.24023438 C969.11140387 817.21345752 969.11140387 817.21345752 969.24573135 818.20634174 C970.03907335 824.55403033 970.14754228 830.84056612 970.17260742 837.23217773 C970.18078491 838.40117111 970.1889624 839.57016449 970.1973877 840.77458191 C970.22210196 844.62640902 970.23873064 848.47819936 970.25317383 852.33007812 C970.25854559 853.67081772 970.26392309 855.01155728 970.26930618 856.35229683 C970.29091642 861.94654755 970.30963689 867.54079569 970.32092857 873.13507748 C970.33706199 881.06846726 970.36999896 889.00135928 970.42732942 896.93456167 C970.46652239 902.55633363 970.48561927 908.17797545 970.49084914 913.79988009 C970.49444092 917.13427736 970.50843737 920.4677253 970.53895187 923.80204582 C970.69188547 941.5385945 969.02307768 957.96222035 964.97973633 975.24023438 C964.79541864 976.04176972 964.61110096 976.84330507 964.42119789 977.66912937 C963.44194951 981.90586391 962.37641779 986.10823053 961.22973633 990.30273438 C960.72385986 992.16877319 960.72385986 992.16877319 960.20776367 994.07250977 C953.17577204 1019.39768384 943.182469 1043.84203632 931.05883789 1067.15136719 C929.87635094 1069.44036229 928.72113812 1071.74217518 927.56567383 1074.04492188 C914.38797406 1100.05093148 898.0756395 1124.40568521 879.97973633 1147.24023438 C879.31844727 1148.08328125 878.6571582 1148.92632813 877.97583008 1149.79492188 C870.39552747 1159.38132477 862.48052761 1168.69901244 854.24536133 1177.72851562 C853.04040055 1179.06436007 851.84058 1180.40568714 850.68261719 1181.7824707 C844.8608842 1188.6450225 838.44234987 1194.92803115 832.07373047 1201.27661133 C830.04710653 1203.29787705 828.02588085 1205.32443011 826.00512695 1207.3515625 C819.83321709 1213.52694296 813.66669737 1219.61774818 806.97973633 1225.24023438 C805.82224893 1226.26079889 804.66730149 1227.28425125 803.51489258 1228.31054688 C794.97731495 1235.84442187 786.15820357 1242.89657853 777.03344727 1249.70556641 C775.09435844 1251.15458119 773.16531876 1252.61605934 771.23754883 1254.08007812 C702.67776433 1305.73458422 616.44381179 1333.41160744 446.97973633 1374.24023438 C446.04536743 1374.42199219 445.11099854 1374.60375 444.14831543 1374.79101562 C347.25292059 1393.59616021 248.37152803 1403.43266192 134.72973633 1408.92773438 C133.72993618 1408.97395746 133.72993618 1408.97395746 132.70993805 1409.02111435 C122.80174678 1409.47831995 112.89214902 1409.8868633 102.97973633 1410.24023438 C102.28607719 1410.26499218 101.59241806 1410.28974998 100.87773895 1410.31525803 C71.29133578 1411.3555214 41.70678657 1411.44256519 12.10473633 1411.42773438 C10.90754974 1411.4274675 9.71036316 1411.42720062 8.47689819 1411.42692566 C-30.39302219 1411.41607402 -69.18964867 1411.1320742 -108.02026367 1409.24023438 C-108.68883392 1409.20791466 -109.35740417 1409.17559494 -110.04623413 1409.14229584 C-205.55857101 1404.51857083 -301.10826464 1395.92969401 -406.02026367 1376.24023438 C-406.96697937 1376.05652283 -407.91369507 1375.87281128 -408.88909912 1375.68353271 C-486.95425592 1360.46436705 -563.5395214 1339.31550759 -636.02026367 1306.24023438 C-637.58531234 1305.535684 -639.15041042 1304.83124337 -640.71557617 1304.12695312 C-663.83230863 1293.60764661 -686.14160517 1280.68989738 -707.02026367 1266.24023438 C-707.60904297 1265.83305176 -708.19782227 1265.42586914 -708.80444336 1265.00634766 C-721.60670416 1256.10549286 -733.69862888 1246.37998438 -745.69873047 1236.43481445 C-750.1253801 1232.77357397 -754.60386495 1229.19520002 -759.14526367 1225.67773438 C-764.80736009 1221.28300455 -770.23463732 1216.65654036 -775.6262207 1211.93530273 C-779.20636965 1208.80232269 -782.82068141 1205.73278536 -786.52026367 1202.74023438 C-796.41739208 1194.71354541 -805.98478842 1186.28263924 -815.36010742 1177.65429688 C-817.51307504 1175.70050247 -819.6867159 1173.78136358 -821.87963867 1171.87304688 C-832.3238085 1162.75533429 -842.26615353 1153.08772439 -852.08276367 1143.30273438 C-852.86756104 1142.5225293 -853.6523584 1141.74232422 -854.4609375 1140.93847656 C-859.18687256 1136.19990126 -863.66095245 1131.31575082 -868.02026367 1126.24023438 C-869.05350217 1125.07186894 -870.08861559 1123.90515852 -871.12573242 1122.74023438 C-927.6152544 1058.81239684 -950.0244429 978.70037753 -950.22338867 894.46289062 C-950.22762974 893.21795743 -950.22762974 893.21795743 -950.23195648 891.94787407 C-950.24684989 887.53157121 -950.25613415 883.11530002 -950.26049805 878.69897461 C-950.26482589 875.14613249 -950.27850715 871.59354104 -950.30151367 868.04077148 C-950.46458538 842.30167137 -949.4193779 816.8700319 -947.02026367 791.24023438 C-946.91548706 790.11873993 -946.81071045 788.99724548 -946.70275879 787.84176636 C-946.14936867 782.10789817 -945.50062853 776.39156514 -944.77026367 770.67773438 C-944.6168602 769.44780258 -944.6168602 769.44780258 -944.46035767 768.19302368 C-933.90215354 684.07285953 -909.45357218 602.04700065 -837.73950195 459.11376953 C-836.06978546 456.32300511 -834.41735837 453.52256792 -832.76635742 450.72070312 C-825.97158256 439.28458369 -818.73438719 428.1838958 -811.27026367 417.17773438 C-810.83422821 416.53464325 -810.39819275 415.89155212 -809.94894409 415.22897339 C-801.89125905 403.36808077 -793.66506533 391.61997589 -785.02026367 380.17773438 C-784.52099365 379.51491455 -784.02172363 378.85209473 -783.50732422 378.16918945 C-782.01457441 376.19062649 -780.51831864 374.21478276 -779.02026367 372.24023438 C-778.57118652 371.64791016 -778.12210938 371.05558594 -777.65942383 370.4453125 C-771.93668027 362.91189886 -766.04447879 355.53551616 -760.02026367 348.24023438 C-758.58267066 346.46947655 -757.145172 344.69864212 -755.70776367 342.92773438 C-748.04601033 333.56782628 -740.14948544 324.41173854 -732.02026367 315.45507812 C-730.22422838 313.46610936 -728.46073064 311.45460243 -726.70776367 309.42773438 C-719.72774387 301.42506051 -712.51276114 293.62641614 -704.93481445 286.18725586 C-703.16225104 284.38462984 -701.51695779 282.53246013 -699.87963867 280.60742188 C-695.65732524 275.75128551 -691.14223966 271.21548133 -686.58276367 266.67773438 C-685.77516602 265.86626953 -684.96756836 265.05480469 -684.13549805 264.21875 C-679.82302392 259.91322588 -675.42876675 255.78393884 -670.80908203 251.81079102 C-668.2522803 249.56595609 -665.89760438 247.1748604 -663.52026367 244.74023438 C-659.86315191 241.03345581 -656.13061796 237.48717946 -652.16870117 234.10742188 C-649.98780629 232.21202596 -647.86570622 230.25996917 -645.74804688 228.29443359 C-640.53652844 223.45876567 -635.19894357 218.87097683 -629.65698242 214.41210938 C-627.09606339 212.30267088 -624.64902913 210.11135789 -622.20776367 207.86523438 C-616.70576854 202.86420583 -610.88152206 198.32175265 -605.00219727 193.78076172 C-602.92023881 192.16248654 -600.85412826 190.52545371 -598.78979492 188.88476562 C-589.00756837 181.13896758 -578.98445322 173.90167555 -568.60864258 166.97363281 C-565.88674087 165.15081616 -563.17777468 163.30976472 -560.46948242 161.46679688 C-537.7206747 146.0545274 -514.32900482 132.05438232 -490.02026367 119.24023438 C-488.37270984 118.36211272 -486.72555582 117.48324038 -485.07885742 116.60351562 C-480.4095467 114.11614839 -475.71851086 111.67240534 -471.02026367 109.24023438 C-470.23699707 108.83160156 -469.45373047 108.42296875 -468.64672852 108.00195312 C-395.95033735 70.21328389 -316.33712947 44.99412828 -186.4697876 16.6751709 C-184.11993095 16.25793126 -181.77098307 15.83587259 -179.42211914 15.41308594 C-144.59977242 9.18367771 -109.34073883 5.19368502 -74.08276367 2.42773438 C-73.3523587 2.37034088 -72.62195374 2.31294739 -71.86941528 2.2538147 C-67.63779142 1.92752387 -63.40502922 1.63540102 -59.16891479 1.37384033 C-57.75064294 1.28565032 -56.33259773 1.19372614 -54.91482544 1.09783936 C-36.63828776 -0.11647462 -18.30784834 0.01810162 0 0 Z " fill="#A7CAEC" transform="translate(950.020263671875,-0.240234375)"/>
<path d="M0 0 C3.74066147 -0.00434129 7.48108663 -0.01808694 11.22167969 -0.04101562 C45.27224926 -0.24514087 79.17147129 1.22740995 112.97973633 5.49023438 C113.81420288 5.59250336 114.64866943 5.69477234 115.50842285 5.80014038 C202.56561517 16.51109593 288.27949567 39.31168836 376.97973633 75.24023438 C378.08913574 75.69285645 379.19853516 76.14547852 380.34155273 76.61181641 C419.3976479 92.61918945 457.96127307 110.60759339 494.47827148 131.80810547 C497.70496945 133.65544202 500.97269247 135.42027529 504.24609375 137.18310547 C538.56075757 155.70894091 571.2795053 177.70694314 602.85473633 200.55273438 C603.96026855 201.35203369 603.96026855 201.35203369 605.08813477 202.16748047 C612.8293283 207.8020595 620.37656705 213.67884564 627.8972168 219.60302734 C629.84765699 221.13639802 631.80466197 222.66081672 633.76489258 224.18164062 C641.10367337 229.88612985 648.26536478 235.76485317 655.3190918 241.81787109 C657.035976 243.28840437 658.75922315 244.75120361 660.48364258 246.21289062 C667.13916701 251.86725464 673.66853819 257.62680095 680.06567383 263.57226562 C682.30509999 265.62257135 684.56423257 267.63114747 686.85473633 269.62304688 C698.20699141 279.52382932 708.94357287 290.10621168 719.60473633 300.74023438 C720.52851074 301.6594165 721.45228516 302.57859863 722.40405273 303.52563477 C726.87415594 308.0059288 731.20475206 312.53832523 735.32592773 317.34130859 C738.23042881 320.67629669 741.30654931 323.84964856 744.35473633 327.05273438 C749.46069871 332.45454923 754.31707481 337.92895415 758.94848633 343.74414062 C761.00189802 346.26746769 763.1516169 348.65955711 765.35473633 351.05273438 C769.87627145 356.02093761 773.99125838 361.24827015 778.10473633 366.55273438 C780.46993314 369.60106705 782.88394945 372.6059339 785.31445312 375.60229492 C821.54753781 420.35940284 852.09533871 469.95762923 878.37036133 521.109375 C879.44969252 523.20909332 880.53307702 525.30673269 881.62036133 527.40234375 C918.90365647 599.3991742 945.16865445 678.28669762 967.81567383 807.47460938 C967.97140366 808.60664543 967.97140366 808.60664543 968.13027954 809.7615509 C968.4224325 811.92004269 968.70172692 814.07987887 968.97973633 816.24023438 C969.11140387 817.21345752 969.11140387 817.21345752 969.24573135 818.20634174 C970.03907335 824.55403033 970.14754228 830.84056612 970.17260742 837.23217773 C970.18078491 838.40117111 970.1889624 839.57016449 970.1973877 840.77458191 C970.22210196 844.62640902 970.23873064 848.47819936 970.25317383 852.33007812 C970.25854559 853.67081772 970.26392309 855.01155728 970.26930618 856.35229683 C970.29091642 861.94654755 970.30963689 867.54079569 970.32092857 873.13507748 C970.33706199 881.06846726 970.36999896 889.00135928 970.42732942 896.93456167 C970.46652239 902.55633363 970.48561927 908.17797545 970.49084914 913.79988009 C970.49444092 917.13427736 970.50843737 920.4677253 970.53895187 923.80204582 C970.69188547 941.5385945 969.02307768 957.96222035 964.97973633 975.24023438 C964.79541864 976.04176972 964.61110096 976.84330507 964.42119789 977.66912937 C963.44194951 981.90586391 962.37641779 986.10823053 961.22973633 990.30273438 C960.72385986 992.16877319 960.72385986 992.16877319 960.20776367 994.07250977 C953.17577204 1019.39768384 943.182469 1043.84203632 931.05883789 1067.15136719 C929.87635094 1069.44036229 928.72113812 1071.74217518 927.56567383 1074.04492188 C914.38797406 1100.05093148 898.0756395 1124.40568521 879.97973633 1147.24023438 C879.31844727 1148.08328125 878.6571582 1148.92632813 877.97583008 1149.79492188 C870.39552747 1159.38132477 862.48052761 1168.69901244 854.24536133 1177.72851562 C853.04040055 1179.06436007 851.84058 1180.40568714 850.68261719 1181.7824707 C844.8608842 1188.6450225 838.44234987 1194.92803115 832.07373047 1201.27661133 C830.04710653 1203.29787705 828.02588085 1205.32443011 826.00512695 1207.3515625 C819.83321709 1213.52694296 813.66669737 1219.61774818 806.97973633 1225.24023438 C805.82224893 1226.26079889 804.66730149 1227.28425125 803.51489258 1228.31054688 C794.97731495 1235.84442187 786.15820357 1242.89657853 777.03344727 1249.70556641 C775.09435844 1251.15458119 773.16531876 1252.61605934 771.23754883 1254.08007812 C702.67776433 1305.73458422 616.44381179 1333.41160744 446.97973633 1374.24023438 C446.04536743 1374.42199219 445.11099854 1374.60375 444.14831543 1374.79101562 C347.25292059 1393.59616021 248.37152803 1403.43266192 134.72973633 1408.92773438 C133.72993618 1408.97395746 133.72993618 1408.97395746 132.70993805 1409.02111435 C122.80174678 1409.47831995 112.89214902 1409.8868633 102.97973633 1410.24023438 C102.28607719 1410.26499218 101.59241806 1410.28974998 100.87773895 1410.31525803 C71.29133578 1411.3555214 41.70678657 1411.44256519 12.10473633 1411.42773438 C10.90754974 1411.4274675 9.71036316 1411.42720062 8.47689819 1411.42692566 C-30.39302219 1411.41607402 -69.18964867 1411.1320742 -108.02026367 1409.24023438 C-108.68883392 1409.20791466 -109.35740417 1409.17559494 -110.04623413 1409.14229584 C-205.55857101 1404.51857083 -301.10826464 1395.92969401 -406.02026367 1376.24023438 C-406.96697937 1376.05652283 -407.91369507 1375.87281128 -408.88909912 1375.68353271 C-486.95425592 1360.46436705 -563.5395214 1339.31550759 -636.02026367 1306.24023438 C-637.58531234 1305.535684 -639.15041042 1304.83124337 -640.71557617 1304.12695312 C-663.83230863 1293.60764661 -686.14160517 1280.68989738 -707.02026367 1266.24023438 C-707.60904297 1265.83305176 -708.19782227 1265.42586914 -708.80444336 1265.00634766 C-721.60670416 1256.10549286 -733.69862888 1246.37998438 -745.69873047 1236.43481445 C-750.1253801 1232.77357397 -754.60386495 1229.19520002 -759.14526367 1225.67773438 C-764.80736009 1221.28300455 -770.23463732 1216.65654036 -775.6262207 1211.93530273 C-779.20636965 1208.80232269 -782.82068141 1205.73278536 -786.52026367 1202.74023438 C-796.41739208 1194.71354541 -805.98478842 1186.28263924 -815.36010742 1177.65429688 C-817.51307504 1175.70050247 -819.6867159 1173.78136358 -821.87963867 1171.87304688 C-832.3238085 1162.75533429 -842.26615353 1153.08772439 -852.08276367 1143.30273438 C-852.86756104 1142.5225293 -853.6523584 1141.74232422 -854.4609375 1140.93847656 C-859.18687256 1136.19990126 -863.66095245 1131.31575082 -868.02026367 1126.24023438 C-869.05350217 1125.07186894 -870.08861559 1123.90515852 -871.12573242 1122.74023438 C-927.6152544 1058.81239684 -950.0244429 978.70037753 -950.22338867 894.46289062 C-950.22762974 893.21795743 -950.22762974 893.21795743 -950.23195648 891.94787407 C-950.24684989 887.53157121 -950.25613415 883.11530002 -950.26049805 878.69897461 C-950.26482589 875.14613249 -950.27850715 871.59354104 -950.30151367 868.04077148 C-950.46458538 842.30167137 -949.4193779 816.8700319 -947.02026367 791.24023438 C-946.91548706 790.11873993 -946.81071045 788.99724548 -946.70275879 787.84176636 C-946.14936867 782.10789817 -945.50062853 776.39156514 -944.77026367 770.67773438 C-944.6168602 769.44780258 -944.6168602 769.44780258 -944.46035767 768.19302368 C-933.90215354 684.07285953 -909.45357218 602.04700065 -837.73950195 459.11376953 C-836.06978546 456.32300511 -834.41735837 453.52256792 -832.76635742 450.72070312 C-825.97158256 439.28458369 -818.73438719 428.1838958 -811.27026367 417.17773438 C-810.83422821 416.53464325 -810.39819275 415.89155212 -809.94894409 415.22897339 C-801.89125905 403.36808077 -793.66506533 391.61997589 -785.02026367 380.17773438 C-784.52099365 379.51491455 -784.02172363 378.85209473 -783.50732422 378.16918945 C-782.01457441 376.19062649 -780.51831864 374.21478276 -779.02026367 372.24023438 C-778.57118652 371.64791016 -778.12210938 371.05558594 -777.65942383 370.4453125 C-771.93668027 362.91189886 -766.04447879 355.53551616 -760.02026367 348.24023438 C-758.58267066 346.46947655 -757.145172 344.69864212 -755.70776367 342.92773438 C-748.04601033 333.56782628 -740.14948544 324.41173854 -732.02026367 315.45507812 C-730.22422838 313.46610936 -728.46073064 311.45460243 -726.70776367 309.42773438 C-719.72774387 301.42506051 -712.51276114 293.62641614 -704.93481445 286.18725586 C-703.16225104 284.38462984 -701.51695779 282.53246013 -699.87963867 280.60742188 C-695.65732524 275.75128551 -691.14223966 271.21548133 -686.58276367 266.67773438 C-685.77516602 265.86626953 -684.96756836 265.05480469 -684.13549805 264.21875 C-679.82302392 259.91322588 -675.42876675 255.78393884 -670.80908203 251.81079102 C-668.2522803 249.56595609 -665.89760438 247.1748604 -663.52026367 244.74023438 C-659.86315191 241.03345581 -656.13061796 237.48717946 -652.16870117 234.10742188 C-649.98780629 232.21202596 -647.86570622 230.25996917 -645.74804688 228.29443359 C-640.53652844 223.45876567 -635.19894357 218.87097683 -629.65698242 214.41210938 C-627.09606339 212.30267088 -624.64902913 210.11135789 -622.20776367 207.86523438 C-616.70576854 202.86420583 -610.88152206 198.32175265 -605.00219727 193.78076172 C-602.92023881 192.16248654 -600.85412826 190.52545371 -598.78979492 188.88476562 C-589.00756837 181.13896758 -578.98445322 173.90167555 -568.60864258 166.97363281 C-565.88674087 165.15081616 -563.17777468 163.30976472 -560.46948242 161.46679688 C-537.7206747 146.0545274 -514.32900482 132.05438232 -490.02026367 119.24023438 C-488.37270984 118.36211272 -486.72555582 117.48324038 -485.07885742 116.60351562 C-480.4095467 114.11614839 -475.71851086 111.67240534 -471.02026367 109.24023438 C-470.23699707 108.83160156 -469.45373047 108.42296875 -468.64672852 108.00195312 C-395.95033735 70.21328389 -316.33712947 44.99412828 -186.4697876 16.6751709 C-184.11993095 16.25793126 -181.77098307 15.83587259 -179.42211914 15.41308594 C-144.59977242 9.18367771 -109.34073883 5.19368502 -74.08276367 2.42773438 C-73.3523587 2.37034088 -72.62195374 2.31294739 -71.86941528 2.2538147 C-67.63779142 1.92752387 -63.40502922 1.63540102 -59.16891479 1.37384033 C-57.75064294 1.28565032 -56.33259773 1.19372614 -54.91482544 1.09783936 C-36.63828776 -0.11647462 -18.30784834 0.01810162 0 0 Z M42.87817383 265.68017578 C39.0410576 266.23142482 35.20020721 266.73154247 31.35473633 267.22070312 C17.16959861 269.07510596 3.16296188 271.59248793 -10.82788086 274.56494141 C-14.12093637 275.26152993 -17.41781181 275.93741233 -20.71557617 276.61132812 C-46.15567835 281.86677225 -71.28719098 288.2823122 -96.02026367 296.24023438 C-97.05505859 296.57104004 -98.08985352 296.9018457 -99.15600586 297.24267578 C-153.89934076 314.83231063 -207.42779148 338.07179976 -257.02026367 367.24023438 C-257.92454102 367.7702002 -258.82881836 368.30016602 -259.76049805 368.84619141 C-288.00889415 385.48861836 -315.19399063 404.04937004 -341.02026367 424.24023438 C-342.14748038 425.10922678 -343.27509467 425.97770368 -344.40307617 426.84570312 C-356.48914411 436.18787028 -367.95069958 446.21493322 -379.14135742 456.60742188 C-380.62116859 457.9607363 -382.1044147 459.31160168 -383.63378906 460.60864258 C-390.31487823 466.28457256 -396.4451261 472.51448261 -402.62939453 478.71899414 C-404.57823237 480.67319061 -406.53235639 482.62198585 -408.48706055 484.5703125 C-414.54362434 490.62334885 -420.51079209 496.6774956 -426.02026367 503.24023438 C-426.96872316 504.32407296 -427.91920635 505.40614437 -428.87182617 506.48632812 C-463.93923117 546.68753118 -501.60165233 599.87432246 -502.20776367 655.17773438 C-502.220896 655.91725342 -502.23402832 656.65677246 -502.24755859 657.41870117 C-502.25582927 663.21390335 -501.32037964 668.6014878 -500.02026367 674.24023438 C-501.00196533 674.09924316 -501.98366699 673.95825195 -502.99511719 673.81298828 C-506.71327118 673.27919518 -510.43156727 672.74639727 -514.14990234 672.21386719 C-515.74499204 671.98528835 -517.34004545 671.75645617 -518.93505859 671.52734375 C-523.55893358 670.86325336 -528.18352209 670.20455416 -532.80917358 669.552948 C-534.25264671 669.34879815 -535.69587716 669.14292291 -537.13882446 668.93508911 C-544.63346442 667.85669227 -552.0037454 666.89312699 -559.58276367 666.92773438 C-560.69361328 666.90356445 -560.69361328 666.90356445 -561.8269043 666.87890625 C-566.63262868 666.87463449 -569.79889453 667.71274795 -574.02026367 670.24023438 C-573.57046845 675.11770135 -572.50661851 677.43940653 -569.02026367 680.86523438 C-568.29838867 681.6 -567.57651367 682.33476563 -566.83276367 683.09179688 C-559.38061463 688.78441073 -550.26926695 690.73933265 -541.33276367 693.05273438 C-540.02487668 693.39573551 -538.71701584 693.73883634 -537.40917969 694.08203125 C-527.78861045 696.59037531 -518.13329745 698.95393085 -508.45776367 701.24023438 C-507.18650635 701.54292236 -505.91524902 701.84561035 -504.60546875 702.1574707 C-503.42106201 702.43228271 -502.23665527 702.70709473 -501.01635742 702.99023438 C-499.97664795 703.23257812 -498.93693848 703.47492188 -497.86572266 703.72460938 C-495.17562173 704.21208198 -492.74603862 704.34043518 -490.02026367 704.24023438 C-489.87911133 705.52414062 -489.87911133 705.52414062 -489.73510742 706.83398438 C-484.26573479 732.89569442 -452.96506192 760.91821007 -433.02026367 776.24023438 C-432.0534668 777.01238281 -431.08666992 777.78453125 -430.09057617 778.58007812 C-415.92854866 789.75783799 -400.71804486 799.37901338 -385.02026367 808.24023438 C-384.21169922 808.69865723 -383.40313477 809.15708008 -382.57006836 809.62939453 C-334.59736116 836.69303519 -282.66632075 856.12561187 -230.40969849 873.15013123 C-225.46371749 874.76233819 -220.52831455 876.40383316 -215.59838867 878.06445312 C-214.9212381 878.29215897 -214.24408752 878.51986481 -213.54641724 878.75447083 C-210.39151661 879.81539374 -207.23729449 880.87820997 -204.08422852 881.94458008 C-197.15331272 884.26732774 -190.19270494 886.37996803 -183.14697266 888.328125 C-179.27469722 889.45772764 -175.52844367 890.83795576 -171.75463867 892.25585938 C-168.92922596 893.27300795 -166.08752838 894.13973392 -163.20776367 894.99023438 C-123.20603173 907.16259911 -123.20603173 907.16259911 -117.02026367 915.24023438 C-117.02026367 918.86466293 -117.48582168 920.63453345 -119.89526367 923.36523438 C-134.7542274 932.28061261 -151.96265119 931.56340284 -168.6796875 931.50097656 C-172.02322243 931.49042232 -175.36620002 931.50082645 -178.7097168 931.51367188 C-205.6631533 931.53635745 -232.23497222 928.82140456 -258.94958496 925.5692749 C-262.60932308 925.12500748 -266.26988829 924.68767288 -269.93041992 924.25 C-274.23259347 923.73536235 -278.5346807 923.22007579 -282.83624268 922.7003479 C-290.54414469 921.76979718 -298.2545227 920.8656372 -305.96907043 919.99156189 C-314.38330283 919.03819807 -322.77055431 918.07020736 -331.12915039 916.70507812 C-338.16122421 915.57443562 -345.23359019 914.69172906 -352.29174805 913.74023438 C-358.77032198 912.85757608 -365.22265924 911.89675904 -371.66796875 910.79833984 C-379.12717769 909.55649645 -386.60780034 908.44515207 -394.08276367 907.30273438 C-404.14104058 905.76399378 -414.19857452 904.22087903 -424.25073242 902.64257812 C-425.01072037 902.52390884 -425.77070831 902.40523956 -426.5537262 902.28297424 C-431.47393907 901.50737771 -436.37219404 900.64540387 -441.27026367 899.74023438 C-447.87129479 898.5380965 -454.48780212 897.63303509 -461.14526367 896.80273438 C-468.83703938 895.8427693 -476.45635299 894.68783154 -484.08276367 893.30273438 C-551.46854007 881.23879962 -620.6154195 893.60033902 -678.77026367 931.42773438 C-680.53615243 932.67639536 -682.28632751 933.94756939 -684.02026367 935.24023438 C-685.06698242 936.0059375 -686.11370117 936.77164063 -687.19213867 937.56054688 C-694.38780438 942.90589854 -701.10391058 948.68127651 -707.58374023 954.87109375 C-708.9762498 956.19828506 -710.38475275 957.50863268 -711.79370117 958.81835938 C-738.9473447 984.80494086 -755.09442387 1021.87043711 -756.22338867 1059.36132812 C-756.91528539 1106.87156933 -736.2606324 1147.97884016 -704.36401367 1182.08007812 C-693.78477573 1192.94388418 -681.54165617 1201.64362032 -669.33032227 1210.54736328 C-667.26496664 1212.06090967 -665.21186536 1213.58881987 -663.16479492 1215.12695312 C-642.94540912 1230.27235569 -621.22401054 1243.2417277 -599.02026367 1255.24023438 C-598.10519043 1255.73539551 -597.19011719 1256.23055664 -596.24731445 1256.74072266 C-553.89455504 1279.52637933 -508.14093411 1297.96843116 -462.0090332 1311.65039062 C-459.97688784 1312.2530991 -457.94971129 1312.87080145 -455.92260742 1313.49023438 C-446.87166754 1316.22983994 -437.74839972 1318.65455513 -428.59057617 1321.00976562 C-423.4986257 1322.32143054 -418.42760406 1323.67721388 -413.37548828 1325.13452148 C-403.01406631 1328.11569833 -392.52616991 1330.41704931 -381.99291992 1332.70507812 C-377.551203 1333.67253825 -373.12339034 1334.67998642 -368.70385742 1335.74414062 C-351.60752981 1339.85337083 -334.41453767 1342.96980795 -317.08465576 1345.890625 C-313.86000093 1346.43672744 -310.63757659 1346.99569996 -307.41479492 1347.55273438 C-248.94618409 1357.57891918 -189.74908894 1364.20017483 -130.52026367 1367.49023438 C-129.29960205 1367.55815186 -128.07894043 1367.62606934 -126.82128906 1367.69604492 C-123.42105278 1367.86555291 -120.02148454 1368.01156034 -116.61953735 1368.14050293 C-114.77008893 1368.21146435 -112.92079582 1368.28652488 -111.07162476 1368.36437988 C-84.11732172 1369.47510854 -57.14653819 1369.46100067 -30.17368853 1369.47905612 C-24.02164704 1369.48325411 -17.86976274 1369.49521911 -11.71777344 1369.52148438 C38.51102188 1369.73093984 88.6121654 1368.30744115 138.66723633 1363.80273438 C141.15995846 1363.58699723 143.65271656 1363.3716753 146.14550781 1363.15673828 C163.58699852 1361.63303255 180.98026082 1359.82092396 198.35571289 1357.67675781 C203.08004283 1357.10769948 207.8102143 1356.60348298 212.54199219 1356.10083008 C239.19935985 1353.25287839 265.59951927 1348.95308846 291.97973633 1344.24023438 C292.82354858 1344.08985718 293.66736084 1343.93947998 294.53674316 1343.7845459 C336.70291008 1336.25971863 379.13995841 1328.05098485 420.02270508 1315.07617188 C423.52236475 1313.97005518 427.03528052 1312.93879551 430.57226562 1311.96020508 C443.40357958 1308.40218998 455.92081712 1304.27059711 468.41723633 1299.67773438 C469.36552307 1299.33118805 470.31380981 1298.98464172 471.29083252 1298.62759399 C509.43368941 1284.66024266 547.77554286 1268.43569155 579.97973633 1243.24023438 C580.91430664 1242.52867187 581.84887695 1241.81710937 582.81176758 1241.08398438 C602.51423838 1225.62201608 618.46230598 1207.75178997 621.97973633 1182.24023438 C623.11668534 1166.5824967 622.36110999 1151.32827518 617.97973633 1136.24023438 C617.77074707 1135.50579102 617.56175781 1134.77134766 617.34643555 1134.01464844 C606.00230585 1095.11320591 582.82978078 1060.82956794 560.51489258 1027.51757812 C518.84194611 965.30135205 518.84194611 965.30135205 519.24145508 948.18554688 C520.44354118 943.38992297 523.44819598 941.8804549 527.50708008 939.36132812 C528.06121582 939.03116699 528.61535156 938.70100586 529.1862793 938.36083984 C532.61896449 936.2159957 535.81452765 933.74062791 539.04223633 931.30273438 C539.72995117 930.78815674 540.41766602 930.2735791 541.1262207 929.7434082 C545.82026061 926.20326373 550.27545472 922.48807968 554.57348633 918.47070312 C556.5729847 916.61727201 558.60542548 914.83458975 560.67114258 913.05664062 C572.40582544 902.81851935 583.46674888 891.57121999 592.97973633 879.24023438 C593.85355993 878.18630714 594.73144162 877.13573622 595.61254883 876.08789062 C620.33188294 846.44483789 661.97973633 787.67589683 661.97973633 747.24023438 C662.95765137 747.1547937 662.95765137 747.1547937 663.95532227 747.06762695 C690.16941093 744.73619694 716.29614227 741.3361217 742.35473633 737.67773438 C743.09449707 737.57525391 743.83425781 737.47277344 744.59643555 737.3671875 C750.37113591 736.53878164 756.11025742 735.52313989 761.85202026 734.49491882 C766.93235032 733.5892069 772.01935009 732.73592871 777.11288452 731.90782166 C780.93366872 731.28198973 784.75028417 730.63264076 788.56665039 729.98046875 C790.52148631 729.65149536 792.47793011 729.33194795 794.43579102 729.02148438 C809.68434981 726.89531172 809.68434981 726.89531172 821.97973633 718.24023438 C822.5141333 717.78600098 823.04853027 717.33176758 823.59912109 716.86376953 C826.01934839 714.76986961 826.93361228 713.65535076 827.29223633 710.42773438 C827.18911133 709.70585938 827.08598633 708.98398437 826.97973633 708.24023438 C818.80498931 704.8015783 811.01078935 704.81213834 802.29223633 704.92773438 C800.76163753 704.9391494 799.23103857 704.95054224 797.70043945 704.96191406 C783.88960221 705.10349969 770.15660565 705.93124292 756.39221191 707.04693604 C752.68309602 707.344127 748.97300869 707.62856581 745.26303101 707.9147644 C720.81436515 709.80392029 696.38273294 711.82827798 671.97973633 714.24023438 C672.20636963 713.05397461 672.43300293 711.86771484 672.66650391 710.64550781 C676.79914441 688.92008829 680.90221691 667.31630352 682.71948242 645.25244141 C682.96711331 642.38633453 683.27111553 639.53241965 683.59301758 636.67382812 C686.75887876 606.68543607 687.62982008 573.94159954 681.97973633 544.24023438 C681.77888428 543.12479248 681.77888428 543.12479248 681.57397461 541.98681641 C677.17889041 518.54103999 663.91894851 497.43513268 648.97973633 479.24023438 C648.54161621 478.70591797 648.10349609 478.17160156 647.65209961 477.62109375 C638.54715213 466.56532029 628.89267433 456.07734572 618.79223633 445.92773438 C618.13908447 445.26990967 617.48593262 444.61208496 616.81298828 443.93432617 C612.36481228 439.50071415 607.73820137 435.33655596 602.97973633 431.24023438 C601.93170412 430.31445943 600.88475471 429.38745661 599.83911133 428.45898438 C589.98598242 419.80194569 579.5458561 411.99985746 568.97973633 404.24023438 C568.21081055 403.67127441 567.44188477 403.10231445 566.6496582 402.51611328 C550.37203045 390.4775984 533.46716937 379.43806207 515.97973633 369.24023438 C515.24835449 368.80952637 514.51697266 368.37881836 513.76342773 367.93505859 C453.27785153 332.37520131 387.13496254 305.69569848 319.03686523 288.76416016 C316.89889492 288.21964505 314.77347941 287.63908433 312.64770508 287.04882812 C289.65766983 280.7038184 266.18583388 276.6206513 242.66113281 272.85180664 C240.07181987 272.42165683 237.49098373 271.97489505 234.90966797 271.50170898 C224.94173163 269.67573228 214.98961255 268.28261023 204.91723633 267.17773438 C204.16271179 267.09341156 203.40818726 267.00908875 202.63079834 266.92221069 C193.13185214 265.86093103 183.62876374 264.86375165 174.10473633 264.05273438 C172.85551392 263.94529907 172.85551392 263.94529907 171.58105469 263.83569336 C168.71517816 263.60818141 165.84915721 263.41812529 162.97973633 263.24023438 C162.31154877 263.19853119 161.64336121 263.156828 160.95492554 263.11386108 C144.16296186 262.10213673 127.3596497 261.95456317 110.54223633 261.92773438 C109.82780491 261.92628922 109.11337349 261.92484406 108.37729263 261.9233551 C86.37609757 261.88751208 64.68505021 262.53414223 42.87817383 265.68017578 Z " fill="#CBE8F5" transform="translate(950.020263671875,-0.240234375)"/>
<path d="M0 0 C9.5705288 8.90116146 15.16469799 19.96464596 15.75 33.06640625 C15.26056021 56.26585212 2.37975584 77.10183927 -11.6875 94.75390625 C-12.75871094 96.14029297 -12.75871094 96.14029297 -13.8515625 97.5546875 C-24.44232423 110.94188631 -36.6136325 123.78222324 -49.5625 134.91015625 C-51.93185934 136.96592392 -54.24535523 139.07701165 -56.5625 141.19140625 C-61.45076439 145.59232102 -66.50627072 149.70459702 -71.6875 153.75390625 C-73.03268082 154.81754554 -74.3777213 155.88136234 -75.72265625 156.9453125 C-119.93458009 191.78469759 -168.72474436 220.0716563 -218.6875 245.75390625 C-220.15485596 246.5130835 -220.15485596 246.5130835 -221.65185547 247.28759766 C-239.60441109 256.55164222 -257.93411746 264.82733956 -276.44482422 272.89941406 C-280.18050479 274.52919063 -283.90549672 276.18220259 -287.62890625 277.83984375 C-322.38395752 293.18497877 -358.25461452 305.67772591 -394.47503662 317.0559082 C-397.6296732 318.05114735 -400.77737455 319.06725926 -403.92578125 320.08203125 C-479.23697427 344.12081342 -581.90300087 370.43609804 -670.6875 337.87890625 C-682.24977203 331.05149102 -691.89345726 322.26097908 -696.80078125 309.51171875 C-700.02395187 295.85229085 -698.64260661 281.40969249 -692.6875 268.75390625 C-692.33864746 268.01043945 -691.98979492 267.26697266 -691.63037109 266.50097656 C-683.7926313 250.17318402 -673.64819747 236.26514275 -661.6875 222.75390625 C-661.24293457 222.25149414 -660.79836914 221.74908203 -660.34033203 221.23144531 C-650.7561502 210.46718702 -640.70424312 200.05911963 -629.6875 190.75390625 C-628.6975 189.88636719 -627.7075 189.01882813 -626.6875 188.125 C-618.29431219 180.78798145 -609.57822518 173.96745573 -600.67578125 167.26171875 C-598.86522303 165.88868246 -597.06958987 164.49944285 -595.28125 163.09765625 C-587.61875826 157.09480416 -579.72191428 151.52088037 -571.65332031 146.08007812 C-569.8249648 144.84664207 -568.00195276 143.60568786 -566.1796875 142.36328125 C-538.7435148 123.75927464 -509.96463974 107.2631465 -480.6875 91.75390625 C-479.04370361 90.88064697 -479.04370361 90.88064697 -477.36669922 89.98974609 C-432.65011084 66.31176877 -386.20485449 46.12331739 -338.6875 28.75390625 C-337.98620972 28.49736267 -337.28491943 28.24081909 -336.56237793 27.97650146 C-309.75598893 18.18976508 -282.76134157 9.30773931 -255.06494141 2.35644531 C-251.86668587 1.54587901 -248.6836533 0.68235995 -245.5 -0.18359375 C-243.65275719 -0.67376125 -241.80542834 -1.16361739 -239.95703125 -1.64941406 C-238.27415477 -2.09185706 -236.59196816 -2.53692587 -234.91015625 -2.98339844 C-202.58318865 -11.51355981 -170.19006326 -17.15844522 -136.96337891 -20.7734375 C-133.54753824 -21.14619327 -130.13870783 -21.55862012 -126.73046875 -21.99609375 C-86.93831208 -26.86467961 -32.29800759 -26.99324762 0 0 Z " fill="#F8FCFD" transform="translate(958.6875,73.24609375)"/>
<path d="M0 0 C12.17927134 8.75500812 18.82701514 21.55011032 21.59130859 36.11572266 C22.91401517 44.93594274 23.36151241 53.58873888 23.3125 62.5 C23.31067719 63.19354584 23.30885437 63.88709167 23.30697632 64.60165405 C23.22297081 83.71359158 20.55880359 101.7223167 15 120 C14.72559082 120.91475098 14.45118164 121.82950195 14.16845703 122.77197266 C0.01127205 169.31303352 -26.17652044 216.31825132 -69.31640625 241.34375 C-71.18378081 242.3396831 -73.04115332 243.20030589 -75 244 C-75.71800781 244.29648437 -76.43601563 244.59296875 -77.17578125 244.8984375 C-86.01590933 248.05252575 -96.36947339 248.63270441 -105.3125 245.5625 C-118.91156148 239.10181631 -126.05836877 226.55456595 -130.95703125 212.9453125 C-134.11095578 202.08473952 -134.33937357 190.96134673 -134.25 179.75 C-134.24590118 179.01923248 -134.24180237 178.28846497 -134.23757935 177.53555298 C-133.91684762 128.73298741 -115.4603926 79.80269831 -86 41 C-85.33484375 40.12214844 -84.6696875 39.24429688 -83.984375 38.33984375 C-66.97958027 16.53084888 -30.54683288 -20.05655041 0 0 Z " fill="#F8FCFD" transform="translate(250,449)"/>
<path d="M0 0 C2.27534797 -0.0097623 4.54981169 -0.04090804 6.82495117 -0.07226562 C14.4708236 -0.12616055 21.07798486 0.16243357 28.21362305 3.24023438 C28.52637249 6.34076768 28.55031545 7.78134142 26.67456055 10.33789062 C25.98620117 10.98628906 25.2978418 11.6346875 24.58862305 12.30273438 C23.91573242 12.95371094 23.2428418 13.6046875 22.54956055 14.27539062 C16.94847193 18.98667419 12.42992764 20.98654033 5.33862305 22.16992188 C4.04213333 22.40338066 4.04213333 22.40338066 2.7194519 22.64155579 C-0.11347006 23.14736158 -2.94952688 23.63198575 -5.78637695 24.11523438 C-7.77853051 24.46386432 -9.7705538 24.81323939 -11.76245117 25.16333008 C-16.81553966 26.0459073 -21.87191951 26.90752203 -26.93029785 27.75921631 C-29.58627668 28.20653368 -32.24156412 28.65774167 -34.89672852 29.10986328 C-57.3502957 32.91588453 -79.86551336 35.7883592 -102.48764038 38.38342285 C-110.10056195 39.26308983 -117.69357048 40.26293233 -125.28637695 41.30273438 C-137.56352114 42.98235471 -149.85814059 44.45781838 -162.17114258 45.84594727 C-169.03137787 46.6267327 -175.83197185 47.54755761 -182.63452148 48.73095703 C-186.2978173 49.32287299 -189.97109772 49.79552595 -193.65356445 50.24804688 C-219.18829782 53.40003051 -244.48872766 57.56030345 -269.78637695 62.24023438 C-270.60424683 62.39147766 -271.4221167 62.54272095 -272.26477051 62.69854736 C-293.50234861 66.64323105 -314.48076455 71.43313512 -335.43557739 76.66662598 C-341.02481925 78.0600567 -346.62772674 79.38840485 -352.23706055 80.69873047 C-362.14748103 83.02044046 -371.88797602 85.66165656 -381.6105957 88.66992188 C-387.57241664 90.50450763 -393.58574504 92.14589986 -399.59887695 93.80273438 C-407.50145905 95.98950397 -415.29585339 98.30928226 -423.04443359 100.99414062 C-426.11840263 102.01779418 -429.19752235 102.95987304 -432.31280518 103.84776306 C-443.67762352 107.08807351 -454.85525123 110.85879592 -466.03637695 114.67773438 C-467.06204773 115.02749329 -468.08771851 115.3772522 -469.14447021 115.73760986 C-496.95703536 125.23989148 -524.3029902 135.79108456 -551.59887695 146.67773438 C-552.54555237 147.05500671 -553.49222778 147.43227905 -554.46759033 147.82098389 C-564.28850715 151.74124638 -574.09120027 155.66614499 -583.68232727 160.12693787 C-588.73354196 162.41713537 -593.3246726 163.57970179 -598.78637695 162.24023438 C-602.02577352 160.50484336 -604.20958829 158.81702304 -606.78637695 156.24023438 C-606.91137695 153.61523438 -606.91137695 153.61523438 -606.78637695 151.24023438 C-588.64489337 140.71445891 -570.31369556 130.71266511 -551.2878418 121.87011719 C-548.76446255 120.69551951 -546.24408858 119.51559037 -543.72631836 118.32910156 C-502.26622647 98.80337745 -459.4552203 81.31770254 -415.53979492 68.08105469 C-412.34401118 67.10514768 -409.16118519 66.09173031 -405.9777832 65.07617188 C-391.89110822 60.60316524 -377.76768007 56.53526397 -363.4309082 52.94335938 C-359.11993321 51.86031796 -354.83999848 50.69815833 -350.56526184 49.4823761 C-339.59674488 46.36998622 -328.53631025 43.78961732 -317.41137695 41.30273438 C-315.44138839 40.86018691 -313.47141792 40.4175589 -311.50146484 39.97485352 C-307.64062964 39.10848159 -303.77900649 38.24574578 -299.91674805 37.38574219 C-296.89459631 36.71240626 -293.87356777 36.03493434 -290.85522461 35.34472656 C-209.00293908 16.63223602 -123.87506611 6.91912533 -40.13745117 2.13989258 C-39.17890732 2.08515274 -38.22036346 2.0304129 -37.23277283 1.97401428 C-35.46726049 1.87454619 -33.70161364 1.77741987 -31.93580627 1.68333435 C-27.83817363 1.45697996 -23.76851609 1.15066141 -19.68725586 0.71679688 C-13.12827745 0.03551636 -6.5895023 0.01707678 0 0 Z " fill="#010202" transform="translate(1748.786376953125,704.759765625)"/>
<path d="M0 0 C1.16579086 0.00442612 1.16579086 0.00442612 2.35513306 0.00894165 C13.20692041 0.21196098 23.88333252 2.04179954 34.5859375 3.7109375 C36.71466457 4.03243861 38.84357064 4.35275688 40.97265625 4.671875 C49.70224749 5.98724387 58.42309969 7.34596969 67.12646484 8.82568359 C71.25663124 9.50892309 75.39383427 10.1436094 79.53125 10.78125 C102.88856648 14.39545607 126.12095042 18.43981651 149.31414795 22.98916626 C153.9892688 23.90606669 158.66729314 24.80255923 163.3515625 25.671875 C200.3266352 32.54924419 237.44130606 40.79311861 273.49462891 51.53515625 C277.90789309 52.83620843 282.33513591 54.08788453 286.76074219 55.34619141 C292.57988868 57.00101599 298.39561865 58.66771919 304.2109375 60.3359375 C305.0889502 60.58762695 305.96696289 60.83931641 306.87158203 61.09863281 C315.40156126 63.55080451 323.86046578 66.15194896 332.2578125 69.02734375 C335.58544721 70.15278768 338.94219147 71.16742692 342.3046875 72.18359375 C349.26934535 74.31578455 356.11346571 76.73153298 362.9609375 79.2109375 C365.44517808 80.10584199 367.92955241 81.00037526 370.4140625 81.89453125 C371.59419922 82.31976074 372.77433594 82.74499023 373.99023438 83.18310547 C377.25474884 84.35161951 380.52833574 85.48960075 383.80737305 86.61645508 C411.56504013 96.19653487 438.60367736 107.9128451 465.3359375 120.0234375 C466.01337006 120.32954956 466.69080261 120.63566162 467.38876343 120.9510498 C476.82672634 125.22309842 486.12608528 129.72807418 495.36860657 134.40730286 C498.45377446 135.96239469 501.552064 137.49079523 504.6484375 139.0234375 C507.50715024 140.45199257 510.35968512 141.89255285 513.2109375 143.3359375 C514.1198877 143.79597168 515.02883789 144.25600586 515.96533203 144.72998047 C531.71237708 152.73172782 547.05754301 161.26296483 562.2109375 170.3359375 C563.18305176 170.9148877 564.15516602 171.49383789 565.15673828 172.09033203 C601.8544374 193.9794374 601.8544374 193.9794374 607.2109375 199.3359375 C607.6484375 202.1484375 607.6484375 202.1484375 607.2109375 205.3359375 C603.89587684 208.83516819 600.78461575 209.73014531 596.0234375 210.2109375 C588.38741892 209.87853524 582.80455548 206.36741274 576.30078125 202.70703125 C568.59589005 198.37642878 560.68164731 194.46568302 552.7734375 190.5234375 C551.60090927 189.93764923 551.60090927 189.93764923 550.4046936 189.34002686 C536.93328022 182.6147878 523.36595895 176.13780812 509.65820312 169.90576172 C506.13419812 168.30099174 502.61773296 166.68044888 499.1015625 165.05859375 C447.638669 141.4027621 394.82165795 121.52562138 341.2109375 103.3359375 C340.37065002 103.05003754 339.53036255 102.76413757 338.66461182 102.46957397 C329.53138367 99.36691302 320.40116432 96.41619444 311.0859375 93.8984375 C298.61956867 90.4783348 298.61956867 90.4783348 292.82421875 88.72265625 C254.19774543 77.03260234 214.58008289 68.26491966 174.99902344 60.48095703 C166.84060904 58.87564787 158.70995523 57.16907911 150.5859375 55.3984375 C143.01465458 53.74942272 135.4366195 52.16524896 127.82421875 50.71875 C127.10052094 50.58123322 126.37682312 50.44371643 125.63119507 50.30203247 C124.14167001 50.01924805 122.65213745 49.73650314 121.16259766 49.45379639 C103.29679759 46.05796513 85.59528464 42.0895716 67.89796448 37.90951538 C62.0765204 36.53487151 56.24670968 35.1998438 50.41333008 33.87670898 C38.4181608 31.1488299 26.49111525 28.20867217 14.62109375 24.97802734 C12.5010711 24.41323201 10.37717916 23.8910606 8.2421875 23.38671875 C-1.21691379 20.94459096 -8.4140137 15.58680859 -13.7890625 7.3359375 C-13.7890625 4.7109375 -13.7890625 4.7109375 -12.7890625 2.3359375 C-8.66171591 0.09410187 -4.59393949 -0.02541059 0 0 Z " fill="#010102" transform="translate(389.7890625,666.6640625)"/>
<path d="M0 0 C5.72302434 5.32374358 9.53308561 11.98264473 10.22265625 19.84375 C10.05113218 28.35758126 5.99251588 35.15576954 0.23046875 41.18359375 C-17.89182159 57.56687643 -43.03535207 60.3201031 -66.35888672 59.42724609 C-71.70692378 59.14134173 -76.86396424 58.49534322 -82.08984375 57.28125 C-83.03472656 57.06339844 -83.97960938 56.84554687 -84.953125 56.62109375 C-101.08371389 52.5382476 -115.02280644 45.54434072 -124.08984375 31.09375 C-126.14606728 23.25439781 -126.691667 15.16581151 -122.65234375 7.90625 C-112.50295017 -6.43885132 -95.90733947 -13.48672314 -79.08984375 -16.71875 C-51.7688629 -20.92710809 -21.97829236 -18.07560494 0 0 Z " fill="#CBE8F5" transform="translate(1381.08984375,482.71875)"/>
<path d="M0 0 C13.82721152 0.70995463 27.79675634 12.48429878 39 20 C39.77424316 20.51755859 40.54848633 21.03511719 41.34619141 21.56835938 C52.49137276 29.03943012 63.39308321 36.78133695 74 45 C74.54156738 45.41765625 75.08313477 45.8353125 75.64111328 46.265625 C89.13250695 56.73579634 89.13250695 56.73579634 92 62 C91.55844156 66.44155844 91.55844156 66.44155844 90 68 C84.52563935 69.00087675 81.46240088 66.73419336 77.12329102 63.78417969 C76.19572998 63.13352539 75.26816895 62.48287109 74.3125 61.8125 C72.75569647 60.74716706 71.19884513 59.68190318 69.64109802 58.61795044 C67.83156927 57.37960584 66.0262414 56.13526765 64.22070312 54.89111328 C59.32237133 51.52553959 54.38758451 48.21462116 49.453125 44.90234375 C47.56076112 43.63114802 45.66842743 42.35990734 43.77612305 41.08862305 C42.82957855 40.45274261 41.88303406 39.81686218 40.9078064 39.16171265 C39.96885529 38.53084747 39.02990417 37.8999823 38.0625 37.25 C37.14860504 36.63597321 36.23471008 36.02194641 35.29312134 35.38931274 C25.92205402 29.08771755 16.5699467 22.75900313 7.30859375 16.296875 C6.59558609 15.80455383 5.88257843 15.31223267 5.14796448 14.80499268 C2.15732925 12.70255945 0.04838492 11.07257738 -2 8 C-2.25 4.9375 -2.25 4.9375 -2 2 C-1.34 1.34 -0.68 0.68 0 0 Z " fill="#030404" transform="translate(926,778)"/>
<path d="M0 0 C1 1 1 1 1.375 3.75 C0.86958953 8.13022403 -0.71310901 9.11522865 -4 12 C-6.38075325 13.64312519 -8.8583397 15.07603738 -11.375 16.5 C-12.10976562 16.9237793 -12.84453125 17.34755859 -13.6015625 17.78417969 C-16.06240242 19.19895893 -18.53049985 20.6003974 -21 22 C-21.87043945 22.49564453 -22.74087891 22.99128906 -23.63769531 23.50195312 C-32.49961684 28.54677495 -41.38946313 33.54153278 -50.2890625 38.51953125 C-51.33537842 39.10500732 -52.38169434 39.6904834 -53.4597168 40.29370117 C-55.55886099 41.46672853 -57.65927319 42.63748986 -59.76098633 43.8059082 C-64.89428181 46.66651458 -69.99101936 49.57050152 -75.03515625 52.5859375 C-75.98890137 53.15046631 -76.94264648 53.71499512 -77.92529297 54.29663086 C-79.71789701 55.36151435 -81.50266791 56.4397387 -83.27783203 57.53344727 C-89.18913516 61.02789879 -89.18913516 61.02789879 -93.51953125 60.87890625 C-96 60 -96 60 -97 59 C-97.28541106 56.24256092 -97.35435095 54.57613004 -95.8828125 52.18359375 C-84.56448095 40.94071775 -69.73420703 32.95840588 -56 25 C-55.19127441 24.53062012 -54.38254883 24.06124023 -53.54931641 23.57763672 C-10.73042398 -1.21476498 -10.73042398 -1.21476498 0 0 Z " fill="#030304" transform="translate(1221,774)"/>
</svg>
